<?xml version="1.0" encoding="utf-8"?>
<!-- Generator: Adobe Illustrator 22.1.0, SVG Export Plug-In . SVG Version: 6.00 Build 0)  -->
<svg version="1.1" id="Layer_1" xmlns="http://www.w3.org/2000/svg" xmlns:xlink="http://www.w3.org/1999/xlink" x="0px" y="0px"
	 viewBox="0 0 1366 768" style="enable-background:new 0 0 1366 768;" xml:space="preserve">
<style type="text/css">
	.st0{fill:#2ECC71;stroke:#FFFFFF;stroke-width:4;stroke-miterlimit:10;}
	.st1{fill:#39FF8D;stroke:#FFFFFF;stroke-width:4;stroke-miterlimit:10;}
	.st2{fill:#FFFFFF;stroke:#2ECC71;stroke-width:2;stroke-miterlimit:10;}
	.st3{font-family:'CenturyGothic-Bold';}
	.st4{font-size:47px;}
	.st5{fill:#2ECC71;}
	.st6{fill:#39FF8D;}
	.st7{fill:#419FDD;stroke:#FFFFFF;stroke-width:4;stroke-miterlimit:10;}
	.st8{fill:#4AB7FF;stroke:#FFFFFF;stroke-width:4;stroke-miterlimit:10;}
	.st9{fill:#FFFFFF;stroke:#419FDD;stroke-width:2;stroke-miterlimit:10;}
	.st10{fill:#419FDD;}
	.st11{fill:#4AB7FF;}
	.st12{fill:#7B4691;stroke:#FFFFFF;stroke-width:4;stroke-miterlimit:10;}
	.st13{fill:#B165D0;stroke:#FFFFFF;stroke-width:4;stroke-miterlimit:10;}
	.st14{fill:#FFFFFF;stroke:#7B4691;stroke-width:2;stroke-miterlimit:10;}
	.st15{fill:#7B4691;}
	.st16{fill:#D177F5;}
	.st17{fill:#B165D0;}
	.st18{fill:#FF9700;stroke:#FFFFFF;stroke-width:4;stroke-miterlimit:10;}
	.st19{fill:#FFCC00;stroke:#FFFFFF;stroke-width:4;stroke-miterlimit:10;}
	.st20{fill:#FFFFFF;}
	.st21{fill:#FF9700;}
	.st22{fill:#FFCC00;}
	.st23{fill:#FFFFFF;stroke:#FF9700;stroke-width:2;stroke-miterlimit:10;}
	.st24{fill:#303337;stroke:#FFFFFF;stroke-width:4;stroke-miterlimit:10;}
	.st25{fill:#454A4F;stroke:#FFFFFF;stroke-width:4;stroke-miterlimit:10;}
	.st26{fill:#FFFFFF;stroke:#303337;stroke-miterlimit:10;}
	.st27{fill:#303337;}
	.st28{fill:#454A4F;}
	.st29{fill:#E74C3C;stroke:#FFFFFF;stroke-width:4;stroke-miterlimit:10;}
	.st30{fill:#FF6151;stroke:#FFFFFF;stroke-width:4;stroke-miterlimit:10;}
	.st31{fill:#FFFFFF;stroke:#E74C3C;stroke-width:2;stroke-miterlimit:10;}
	.st32{fill:#E74C3C;}
	.st33{fill:#FF6151;}
	.st34{fill:#5F7274;}
	.st35{fill:#81592F;}
	.st36{fill:#AA9C7D;}
	.st37{fill:#2D6F99;}
	.st38{fill:#B18D00;}
	.st39{fill:#7B4690;}
	.st40{fill:#208D4F;}
	.st41{fill:#A14A10;}
	.st42{fill:#BA3B2F;}
	.st43{fill:#88A3A5;}
	.st44{fill:#BA8044;}
	.st45{fill:#F4E0B3;}
	.st46{fill:#419EDC;}
	.st47{fill:#FECB00;}
	.st48{fill:#B065CF;}
	.st49{fill:#2ECB71;}
	.st50{fill:#E76A17;}
	.st51{fill:#E64C3C;}
	.st52{fill:#6A7279;}
	.st53{fill:#ACCFD1;}
	.st54{fill:#D8934F;}
	.st55{fill:#FEF2D8;}
	.st56{fill:#4AB6FE;}
	.st57{fill:#FEE069;}
	.st58{fill:#D077F4;}
	.st59{fill:#39FE8C;}
	.st60{fill:#FE8131;}
	.st61{fill:#FE6151;}
</style>
<g>
	<polygon class="st0" points="1102,129.5 886,129.5 876,117 876,30.5 1089,30.5 1102,42.5 	"/>
	<rect x="876" y="30.5" class="st1" width="213" height="86.5"/>
	<text transform="matrix(1 0 0 1 929.9023 93.6234)" class="st2 st3 st4">PLAY</text>
	<path class="st5" d="M1070.1,96.9c0.2-3.6,1-6.6,2.6-9.1c1.4-2.6,3.1-3.8,5-3.6c1.9,0.1,3.6,1.4,4.9,4c1.1,2.6,1.6,5.7,1.4,9.3
		l0,0.2l0,0.4c-0.2,1.7-0.9,3-2.2,4.1c-1.4,1.4-3,2-5,2c-1.9-0.1-3.5-0.8-4.8-2.2c-1.2-1.3-1.8-2.8-1.8-4.6L1070.1,96.9
		 M1059.4,111.4c-2.2-2.4-3.5-4.8-4-7.2c-0.7-2.3-0.4-4.1,0.9-5.2l5.1-0.3c2.5,0.7,4.8,2.3,6.9,4.6l0.2,0l0,0.2
		c0.9,1.1,1.3,2.5,1.3,4c-0.1,1.7-0.7,3-2,4.1c-1.3,1.2-2.7,1.7-4.2,1.6s-2.8-0.6-3.7-1.6l-0.2,0L1059.4,111.4"/>
	<polygon class="st5" points="851,125.5 635,125.5 625,113 625,26.5 838,26.5 851,38.5 	"/>
	<rect x="625" y="26.5" class="st6" width="213" height="86.5"/>
	<text transform="matrix(1 0 0 1 675.6696 92.6469)" class="st2 st3 st4">PLAY</text>
	<path class="st5" d="M819.1,92.9c0.2-3.6,1-6.6,2.6-9.1c1.4-2.6,3.1-3.8,5-3.6c1.9,0.1,3.6,1.4,4.9,4c1.1,2.6,1.6,5.7,1.4,9.3
		l0,0.2l0,0.4c-0.2,1.7-0.9,3-2.2,4.1c-1.4,1.4-3,2-5,2c-1.9-0.1-3.5-0.8-4.8-2.2c-1.2-1.3-1.8-2.8-1.8-4.6L819.1,92.9 M808.4,107.4
		c-2.2-2.4-3.5-4.8-4-7.2c-0.7-2.3-0.4-4.1,0.9-5.2l5.1-0.3c2.5,0.7,4.8,2.3,6.9,4.6l0.2,0l0,0.2c0.9,1.1,1.3,2.5,1.3,4
		c-0.1,1.7-0.7,3-2,4.1c-1.3,1.2-2.7,1.7-4.2,1.6c-1.6-0.1-2.8-0.6-3.7-1.6l-0.2,0L808.4,107.4"/>
	<rect x="1123" y="33.5" class="st5" width="213" height="86.5"/>
	<text transform="matrix(1 0 0 1 1176.9023 96.6234)" class="st2 st3 st4">PLAY</text>
	<path class="st6" d="M1317.1,99.9c0.2-3.6,1-6.6,2.6-9.1c1.4-2.6,3.1-3.8,5-3.6c1.9,0.1,3.6,1.4,4.9,4c1.1,2.6,1.6,5.7,1.4,9.3
		l0,0.2l0,0.4c-0.2,1.7-0.9,3-2.2,4.1c-1.4,1.4-3,2-5,2c-1.9-0.1-3.5-0.8-4.8-2.2c-1.2-1.3-1.8-2.8-1.8-4.6L1317.1,99.9
		 M1306.4,114.4c-2.2-2.4-3.5-4.8-4-7.2c-0.7-2.3-0.4-4.1,0.9-5.2l5.1-0.3c2.5,0.7,4.8,2.3,6.9,4.6l0.2,0l0,0.2
		c0.9,1.1,1.3,2.5,1.3,4c-0.1,1.7-0.7,3-2,4.1c-1.3,1.2-2.7,1.7-4.2,1.6s-2.8-0.6-3.7-1.6l-0.2,0L1306.4,114.4"/>
	<polygon class="st7" points="1102,375.5 886,375.5 876,363 876,276.5 1089,276.5 1102,288.5 	"/>
	<rect x="876" y="276.5" class="st8" width="213" height="86.5"/>
	<text transform="matrix(1 0 0 1 892.4888 340.6229)" class="st9 st3 st4">CREDITS</text>
	<path class="st10" d="M1071.1,342.9c0.2-3.6,1-6.6,2.6-9.1c1.4-2.6,3.1-3.8,5-3.6c1.9,0.1,3.6,1.4,4.9,4c1.1,2.6,1.6,5.7,1.4,9.3
		l0,0.2l0,0.4c-0.2,1.7-0.9,3-2.2,4.1c-1.4,1.4-3,2-5,2c-1.9-0.1-3.5-0.8-4.8-2.2c-1.2-1.3-1.8-2.8-1.8-4.6L1071.1,342.9
		 M1060.4,357.4c-2.2-2.4-3.5-4.8-4-7.2c-0.7-2.3-0.4-4.1,0.9-5.2l5.1-0.3c2.5,0.7,4.8,2.3,6.9,4.6l0.2,0l0,0.2
		c0.9,1.1,1.3,2.5,1.3,4c-0.1,1.7-0.7,3-2,4.1c-1.3,1.2-2.7,1.7-4.2,1.6s-2.8-0.6-3.7-1.6l-0.2,0L1060.4,357.4"/>
	<polygon class="st10" points="851,371.5 635,371.5 625,359 625,272.5 838,272.5 851,284.5 	"/>
	<rect x="625" y="272.5" class="st11" width="213" height="86.5"/>
	<text transform="matrix(1 0 0 1 641.4886 336.6229)" class="st9 st3 st4">CREDITS</text>
	<path class="st10" d="M820.1,338.9c0.2-3.6,1-6.6,2.6-9.1c1.4-2.6,3.1-3.8,5-3.6c1.9,0.1,3.6,1.4,4.9,4c1.1,2.6,1.6,5.7,1.4,9.3
		l0,0.2l0,0.4c-0.2,1.7-0.9,3-2.2,4.1c-1.4,1.4-3,2-5,2c-1.9-0.1-3.5-0.8-4.8-2.2c-1.2-1.3-1.8-2.8-1.8-4.6L820.1,338.9
		 M809.4,353.4c-2.2-2.4-3.5-4.8-4-7.2c-0.7-2.3-0.4-4.1,0.9-5.2l5.1-0.3c2.5,0.7,4.8,2.3,6.9,4.6l0.2,0l0,0.2
		c0.9,1.1,1.3,2.5,1.3,4c-0.1,1.7-0.7,3-2,4.1c-1.3,1.2-2.7,1.7-4.2,1.6c-1.6-0.1-2.8-0.6-3.7-1.6l-0.2,0L809.4,353.4"/>
	<rect x="1123" y="279.5" class="st10" width="213" height="86.5"/>
	<text transform="matrix(1 0 0 1 1139.4888 343.6229)" class="st9 st3 st4">CREDITS</text>
	<path class="st11" d="M1318.1,345.9c0.2-3.6,1-6.6,2.6-9.1c1.4-2.6,3.1-3.8,5-3.6c1.9,0.1,3.6,1.4,4.9,4c1.1,2.6,1.6,5.7,1.4,9.3
		l0,0.2l0,0.4c-0.2,1.7-0.9,3-2.2,4.1c-1.4,1.4-3,2-5,2c-1.9-0.1-3.5-0.8-4.8-2.2c-1.2-1.3-1.8-2.8-1.8-4.6L1318.1,345.9
		 M1307.4,360.4c-2.2-2.4-3.5-4.8-4-7.2c-0.7-2.3-0.4-4.1,0.9-5.2l5.1-0.3c2.5,0.7,4.8,2.3,6.9,4.6l0.2,0l0,0.2
		c0.9,1.1,1.3,2.5,1.3,4c-0.1,1.7-0.7,3-2,4.1c-1.3,1.2-2.7,1.7-4.2,1.6s-2.8-0.6-3.7-1.6l-0.2,0L1307.4,360.4"/>
	<polygon class="st12" points="1102,252.5 886,252.5 876,240 876,153.5 1089,153.5 1102,165.5 	"/>
	<rect x="876" y="153.5" class="st13" width="213" height="86.5"/>
	<text transform="matrix(1 0 0 1 890.7739 214.6234)" class="st14 st3 st4">HOW TO</text>
	<path class="st15" d="M1071.1,219.9c0.2-3.6,1-6.6,2.6-9.1c1.4-2.6,3.1-3.8,5-3.6c1.9,0.1,3.6,1.4,4.9,4c1.1,2.6,1.6,5.7,1.4,9.3
		l0,0.2l0,0.4c-0.2,1.7-0.9,3-2.2,4.1c-1.4,1.4-3,2-5,2c-1.9-0.1-3.5-0.8-4.8-2.2c-1.2-1.3-1.8-2.8-1.8-4.6L1071.1,219.9
		 M1060.4,234.4c-2.2-2.4-3.5-4.8-4-7.2c-0.7-2.3-0.4-4.1,0.9-5.2l5.1-0.3c2.5,0.7,4.8,2.3,6.9,4.6l0.2,0l0,0.2
		c0.9,1.1,1.3,2.5,1.3,4c-0.1,1.7-0.7,3-2,4.1c-1.3,1.2-2.7,1.7-4.2,1.6s-2.8-0.6-3.7-1.6l-0.2,0L1060.4,234.4"/>
	<polygon class="st15" points="851,248.5 635,248.5 625,236 625,149.5 838,149.5 851,161.5 	"/>
	<rect x="625" y="149.5" class="st16" width="213" height="86.5"/>
	<text transform="matrix(1 0 0 1 639.7738 210.6234)" class="st14 st3 st4">HOW TO</text>
	<path class="st15" d="M820.1,215.9c0.2-3.6,1-6.6,2.6-9.1c1.4-2.6,3.1-3.8,5-3.6c1.9,0.1,3.6,1.4,4.9,4c1.1,2.6,1.6,5.7,1.4,9.3
		l0,0.2l0,0.4c-0.2,1.7-0.9,3-2.2,4.1c-1.4,1.4-3,2-5,2c-1.9-0.1-3.5-0.8-4.8-2.2c-1.2-1.3-1.8-2.8-1.8-4.6L820.1,215.9
		 M809.4,230.4c-2.2-2.4-3.5-4.8-4-7.2c-0.7-2.3-0.4-4.1,0.9-5.2l5.1-0.3c2.5,0.7,4.8,2.3,6.9,4.6l0.2,0l0,0.2
		c0.9,1.1,1.3,2.5,1.3,4c-0.1,1.7-0.7,3-2,4.1c-1.3,1.2-2.7,1.7-4.2,1.6c-1.6-0.1-2.8-0.6-3.7-1.6l-0.2,0L809.4,230.4"/>
	<rect x="1123" y="156.5" class="st17" width="213" height="86.5"/>
	<text transform="matrix(1 0 0 1 1137.7739 217.6234)" class="st14 st3 st4">HOW TO</text>
	<path class="st15" d="M1318.1,222.9c0.2-3.6,1-6.6,2.6-9.1c1.4-2.6,3.1-3.8,5-3.6c1.9,0.1,3.6,1.4,4.9,4c1.1,2.6,1.6,5.7,1.4,9.3
		l0,0.2l0,0.4c-0.2,1.7-0.9,3-2.2,4.1c-1.4,1.4-3,2-5,2c-1.9-0.1-3.5-0.8-4.8-2.2c-1.2-1.3-1.8-2.8-1.8-4.6L1318.1,222.9
		 M1307.4,237.4c-2.2-2.4-3.5-4.8-4-7.2c-0.7-2.3-0.4-4.1,0.9-5.2l5.1-0.3c2.5,0.7,4.8,2.3,6.9,4.6l0.2,0l0,0.2
		c0.9,1.1,1.3,2.5,1.3,4c-0.1,1.7-0.7,3-2,4.1c-1.3,1.2-2.7,1.7-4.2,1.6s-2.8-0.6-3.7-1.6l-0.2,0L1307.4,237.4"/>
	<polygon class="st18" points="1102,498.5 886,498.5 876,486 876,399.5 1089,399.5 1102,411.5 	"/>
	<rect x="876" y="399.5" class="st19" width="213" height="86.5"/>
	<text transform="matrix(1 0 0 1 926.2368 461.6234)" class="st20 st3 st4">BACK</text>
	<path class="st21" d="M1071.1,465.9c0.2-3.6,1-6.6,2.6-9.1c1.4-2.6,3.1-3.8,5-3.6c1.9,0.1,3.6,1.4,4.9,4c1.1,2.6,1.6,5.7,1.4,9.3
		l0,0.2l0,0.4c-0.2,1.7-0.9,3-2.2,4.1c-1.4,1.4-3,2-5,2c-1.9-0.1-3.5-0.8-4.8-2.2c-1.2-1.3-1.8-2.8-1.8-4.6L1071.1,465.9
		 M1060.4,480.4c-2.2-2.4-3.5-4.8-4-7.2c-0.7-2.3-0.4-4.1,0.9-5.2l5.1-0.3c2.5,0.7,4.8,2.3,6.9,4.6l0.2,0l0,0.2
		c0.9,1.1,1.3,2.5,1.3,4c-0.1,1.7-0.7,3-2,4.1c-1.3,1.2-2.7,1.7-4.2,1.6s-2.8-0.6-3.7-1.6l-0.2,0L1060.4,480.4"/>
	<polygon class="st21" points="851,494.5 635,494.5 625,482 625,395.5 838,395.5 851,407.5 	"/>
	<rect x="625" y="395.5" class="st22" width="213" height="86.5"/>
	<text transform="matrix(1 0 0 1 675.2367 457.6234)" class="st23 st3 st4">BACK</text>
	<path class="st21" d="M820.1,461.9c0.2-3.6,1-6.6,2.6-9.1c1.4-2.6,3.1-3.8,5-3.6c1.9,0.1,3.6,1.4,4.9,4c1.1,2.6,1.6,5.7,1.4,9.3
		l0,0.2l0,0.4c-0.2,1.7-0.9,3-2.2,4.1c-1.4,1.4-3,2-5,2c-1.9-0.1-3.5-0.8-4.8-2.2c-1.2-1.3-1.8-2.8-1.8-4.6L820.1,461.9
		 M809.4,476.4c-2.2-2.4-3.5-4.8-4-7.2c-0.7-2.3-0.4-4.1,0.9-5.2l5.1-0.3c2.5,0.7,4.8,2.3,6.9,4.6l0.2,0l0,0.2
		c0.9,1.1,1.3,2.5,1.3,4c-0.1,1.7-0.7,3-2,4.1c-1.3,1.2-2.7,1.7-4.2,1.6c-1.6-0.1-2.8-0.6-3.7-1.6l-0.2,0L809.4,476.4"/>
	<rect x="1123" y="402.5" class="st21" width="213" height="86.5"/>
	<text transform="matrix(1 0 0 1 1173.2368 464.6234)" class="st20 st3 st4">BACK</text>
	<path class="st22" d="M1318.1,468.9c0.2-3.6,1-6.6,2.6-9.1c1.4-2.6,3.1-3.8,5-3.6c1.9,0.1,3.6,1.4,4.9,4c1.1,2.6,1.6,5.7,1.4,9.3
		l0,0.2l0,0.4c-0.2,1.7-0.9,3-2.2,4.1c-1.4,1.4-3,2-5,2c-1.9-0.1-3.5-0.8-4.8-2.2c-1.2-1.3-1.8-2.8-1.8-4.6L1318.1,468.9
		 M1307.4,483.4c-2.2-2.4-3.5-4.8-4-7.2c-0.7-2.3-0.4-4.1,0.9-5.2l5.1-0.3c2.5,0.7,4.8,2.3,6.9,4.6l0.2,0l0,0.2
		c0.9,1.1,1.3,2.5,1.3,4c-0.1,1.7-0.7,3-2,4.1c-1.3,1.2-2.7,1.7-4.2,1.6s-2.8-0.6-3.7-1.6l-0.2,0L1307.4,483.4"/>
	<polygon class="st24" points="1102,621.5 886,621.5 876,609 876,522.5 1089,522.5 1102,534.5 	"/>
	<rect x="876" y="522.5" class="st25" width="213" height="86.5"/>
	<text transform="matrix(1 0 0 1 931.9141 584.6234)" class="st26 st3 st4">TEXT</text>
	<path class="st27" d="M894.4,543.5c0.8,3.5,0.7,6.7-0.1,9.5c-0.7,2.9-2,4.5-3.9,4.8c-1.9,0.4-3.8-0.5-5.8-2.6
		c-1.7-2.2-3-5.1-3.7-8.6l0-0.2l-0.1-0.4c-0.2-1.7,0.1-3.2,1-4.5c1-1.7,2.4-2.8,4.3-3.2c1.9-0.4,3.6-0.1,5.2,0.9
		c1.4,0.9,2.4,2.2,2.9,4L894.4,543.5 M901.1,526.7c2.7,1.7,4.6,3.7,5.7,5.9c1.3,2.1,1.5,3.8,0.4,5.3l-4.8,1.6c-2.6,0-5.2-1-7.8-2.7
		l-0.2,0l0-0.2c-1.2-0.9-1.9-2-2.3-3.6c-0.4-1.6-0.1-3.1,0.9-4.4c0.9-1.4,2.1-2.3,3.7-2.7c1.5-0.3,2.9-0.1,4,0.6l0.2,0L901.1,526.7"
		/>
	<polygon class="st27" points="851,617.5 635,617.5 625,605 625,518.5 838,518.5 851,530.5 	"/>
	<rect x="625" y="518.5" class="st28" width="213" height="86.5"/>
	<text transform="matrix(1 0 0 1 680.9138 580.6234)" class="st26 st3 st4">TEXT</text>
	<path class="st27" d="M643.4,539.5c0.8,3.5,0.7,6.7-0.1,9.5c-0.7,2.9-2,4.5-3.9,4.8c-1.9,0.4-3.8-0.5-5.8-2.6
		c-1.7-2.2-3-5.1-3.7-8.6l0-0.2l-0.1-0.4c-0.2-1.7,0.1-3.2,1-4.5c1-1.7,2.4-2.8,4.3-3.2c1.9-0.4,3.6-0.1,5.2,0.9
		c1.4,0.9,2.4,2.2,2.9,4L643.4,539.5 M650.1,522.7c2.7,1.7,4.6,3.7,5.7,5.9c1.3,2.1,1.5,3.8,0.4,5.3l-4.8,1.6c-2.6,0-5.2-1-7.8-2.7
		l-0.2,0l0-0.2c-1.2-0.9-1.9-2-2.3-3.6c-0.4-1.6-0.1-3.1,0.9-4.4c0.9-1.4,2.1-2.3,3.7-2.7c1.5-0.3,2.9-0.1,4,0.6l0.2,0L650.1,522.7"
		/>
	<rect x="1123" y="525.5" class="st27" width="213" height="86.5"/>
	<text transform="matrix(1 0 0 1 1178.9141 587.6234)" class="st26 st3 st4">TEXT</text>
	<path class="st28" d="M1141.4,546.5c0.8,3.5,0.7,6.7-0.1,9.5c-0.7,2.9-2,4.5-3.9,4.8c-1.9,0.4-3.8-0.5-5.8-2.6
		c-1.7-2.2-3-5.1-3.7-8.6l0-0.2l-0.1-0.4c-0.2-1.7,0.1-3.2,1-4.5c1-1.7,2.4-2.8,4.3-3.2c1.9-0.4,3.6-0.1,5.2,0.9
		c1.4,0.9,2.4,2.2,2.9,4L1141.4,546.5 M1148.1,529.7c2.7,1.7,4.6,3.7,5.7,5.9c1.3,2.1,1.5,3.8,0.4,5.3l-4.8,1.6
		c-2.6,0-5.2-1-7.8-2.7l-0.2,0l0-0.2c-1.2-0.9-1.9-2-2.3-3.6c-0.4-1.6-0.1-3.1,0.9-4.4c0.9-1.4,2.1-2.3,3.7-2.7s2.9-0.1,4,0.6l0.2,0
		L1148.1,529.7"/>
	<polygon class="st29" points="1102,741.5 886,741.5 876,729 876,642.5 1089,642.5 1102,654.5 	"/>
	<rect x="876" y="642.5" class="st30" width="213" height="86.5"/>
	<text transform="matrix(1 0 0 1 931.9141 704.6234)" class="st31 st3 st4">QUIT</text>
	<path class="st32" d="M894.4,663.5c0.8,3.5,0.7,6.7-0.1,9.5c-0.7,2.9-2,4.5-3.9,4.8c-1.9,0.4-3.8-0.5-5.8-2.6
		c-1.7-2.2-3-5.1-3.7-8.6l0-0.2l-0.1-0.4c-0.2-1.7,0.1-3.2,1-4.5c1-1.7,2.4-2.8,4.3-3.2c1.9-0.4,3.6-0.1,5.2,0.9
		c1.4,0.9,2.4,2.2,2.9,4L894.4,663.5 M901.1,646.7c2.7,1.7,4.6,3.7,5.7,5.9c1.3,2.1,1.5,3.8,0.4,5.3l-4.8,1.6c-2.6,0-5.2-1-7.8-2.7
		l-0.2,0l0-0.2c-1.2-0.9-1.9-2-2.3-3.6c-0.4-1.6-0.1-3.1,0.9-4.4c0.9-1.4,2.1-2.3,3.7-2.7c1.5-0.3,2.9-0.1,4,0.6l0.2,0L901.1,646.7"
		/>
	<polygon class="st32" points="851,737.5 635,737.5 625,725 625,638.5 838,638.5 851,650.5 	"/>
	<rect x="625" y="638.5" class="st33" width="213" height="86.5"/>
	<text transform="matrix(1 0 0 1 680.9138 700.6234)" class="st31 st3 st4">QUIT</text>
	<path class="st32" d="M643.4,659.5c0.8,3.5,0.7,6.7-0.1,9.5c-0.7,2.9-2,4.5-3.9,4.8c-1.9,0.4-3.8-0.5-5.8-2.6
		c-1.7-2.2-3-5.1-3.7-8.6l0-0.2l-0.1-0.4c-0.2-1.7,0.1-3.2,1-4.5c1-1.7,2.4-2.8,4.3-3.2c1.9-0.4,3.6-0.1,5.2,0.9
		c1.4,0.9,2.4,2.2,2.9,4L643.4,659.5 M650.1,642.7c2.7,1.7,4.6,3.7,5.7,5.9c1.3,2.1,1.5,3.8,0.4,5.3l-4.8,1.6c-2.6,0-5.2-1-7.8-2.7
		l-0.2,0l0-0.2c-1.2-0.9-1.9-2-2.3-3.6c-0.4-1.6-0.1-3.1,0.9-4.4c0.9-1.4,2.1-2.3,3.7-2.7c1.5-0.3,2.9-0.1,4,0.6l0.2,0L650.1,642.7"
		/>
	<rect x="1123" y="645.5" class="st32" width="213" height="86.5"/>
	<text transform="matrix(1 0 0 1 1178.9141 707.6234)" class="st31 st3 st4">QUIT</text>
	<path class="st33" d="M1141.4,666.5c0.8,3.5,0.7,6.7-0.1,9.5c-0.7,2.9-2,4.5-3.9,4.8c-1.9,0.4-3.8-0.5-5.8-2.6
		c-1.7-2.2-3-5.1-3.7-8.6l0-0.2l-0.1-0.4c-0.2-1.7,0.1-3.2,1-4.5c1-1.7,2.4-2.8,4.3-3.2c1.9-0.4,3.6-0.1,5.2,0.9
		c1.4,0.9,2.4,2.2,2.9,4L1141.4,666.5 M1148.1,649.7c2.7,1.7,4.6,3.7,5.7,5.9c1.3,2.1,1.5,3.8,0.4,5.3l-4.8,1.6
		c-2.6,0-5.2-1-7.8-2.7l-0.2,0l0-0.2c-1.2-0.9-1.9-2-2.3-3.6c-0.4-1.6-0.1-3.1,0.9-4.4c0.9-1.4,2.1-2.3,3.7-2.7s2.9-0.1,4,0.6l0.2,0
		L1148.1,649.7"/>
</g>
<g>
	<rect x="70" y="644" class="st27" width="65" height="65"/>
	<rect x="70" y="579" class="st34" width="65" height="65"/>
	<rect x="70" y="514" class="st35" width="65" height="65"/>
	<rect x="70" y="449" class="st36" width="65" height="65"/>
	<rect x="70" y="384" class="st37" width="65" height="65"/>
	<rect x="70" y="319" class="st38" width="65" height="65"/>
	<rect x="70" y="254" class="st39" width="65" height="65"/>
	<rect x="70" y="189" class="st40" width="65" height="65"/>
	<rect x="70" y="124" class="st41" width="65" height="65"/>
	<rect x="70" y="59" class="st42" width="65" height="65"/>
	<rect x="135" y="644" class="st28" width="65" height="65"/>
	<rect x="135" y="579" class="st43" width="65" height="65"/>
	<rect x="135" y="514" class="st44" width="65" height="65"/>
	<rect x="135" y="449" class="st45" width="65" height="65"/>
	<rect x="135" y="384" class="st46" width="65" height="65"/>
	<rect x="135" y="319" class="st47" width="65" height="65"/>
	<rect x="135" y="254" class="st48" width="65" height="65"/>
	<rect x="135" y="189" class="st49" width="65" height="65"/>
	<rect x="135" y="124" class="st50" width="65" height="65"/>
	<rect x="135" y="59" class="st51" width="65" height="65"/>
	<rect x="200" y="644" class="st52" width="65" height="65"/>
	<rect x="200" y="579" class="st53" width="65" height="65"/>
	<rect x="200" y="514" class="st54" width="65" height="65"/>
	<rect x="200" y="449" class="st55" width="65" height="65"/>
	<rect x="200" y="384" class="st56" width="65" height="65"/>
	<rect x="200" y="319" class="st57" width="65" height="65"/>
	<rect x="200" y="254" class="st58" width="65" height="65"/>
	<rect x="200" y="189" class="st59" width="65" height="65"/>
	<rect x="200" y="124" class="st60" width="65" height="65"/>
	<rect x="200" y="59" class="st61" width="65" height="65"/>
</g>
</svg>
